<?xml version="1.0" encoding="utf-8"?>
<!-- Generator: Adobe Illustrator 19.0.0, SVG Export Plug-In . SVG Version: 6.00 Build 0)  -->
<svg version="1.1" id="Layer_1" xmlns="http://www.w3.org/2000/svg" xmlns:xlink="http://www.w3.org/1999/xlink" x="0px" y="0px"
	 viewBox="0 0 512 512" style="enable-background:new 0 0 512 512;" xml:space="preserve">
<g id="XMLID_1_">
	<path id="XMLID_3_" d="M158.8,262c-0.7,0-1.3-0.1-1.8-0.4c-0.5-0.3-0.9-0.6-1.3-1c-0.3-0.4-0.6-0.9-0.8-1.4
		c-0.2-0.5-0.3-1.1-0.3-1.6c0-0.5,0.1-1.1,0.4-2c0.3-0.8,0.6-1.8,1-2.8c0.4-1,0.8-2.1,1.3-3.3c0.5-1.1,0.9-2.2,1.4-3.3
		c0.4-1,0.8-2,1.1-2.9c0.3-0.9,0.5-1.6,0.7-2.1c0.1-0.6,0.3-1.3,0.5-2c0.2-0.8,0.4-1.7,0.6-2.6c0.2-0.9,0.5-1.9,0.7-2.9
		c0.2-1,0.5-2.1,0.7-3.1c-0.4,0.1-1,0.2-1.6,0.3c-0.6,0.1-1.3,0.2-2.1,0.2c-1,0.1-2.1,0.2-3.1,0.4c-1,0.2-2.1,0.4-3.1,0.6
		c-1.1,0.2-2.2,0.5-3.3,0.8c-1.1,0.3-2.4,0.5-3.7,0.8c-1.9,0.4-3.8,0.9-5.7,1.4c-1.9,0.5-3.9,0.8-5.9,0.8c-0.6,0-1.2-0.2-1.8-0.5
		c-0.5-0.3-1.1-0.6-1.8-0.7c-0.6,1-1.2,2.1-1.8,3.3c-0.6,1.2-1.1,2.3-1.6,3.6c-0.5,1.2-0.9,2.4-1.3,3.6c-0.4,1.2-0.7,2.3-1,3.3
		c-0.2,0.6-0.3,1.3-0.4,2.2c-0.1,0.9-0.2,1.8-0.3,2.8c-0.1,0.9-0.2,1.8-0.3,2.7c-0.1,0.9-0.2,1.5-0.3,2c-0.1,0.5-0.3,0.9-0.6,1.4
		c-0.3,0.5-0.6,0.9-1,1.3c-0.4,0.4-0.9,0.7-1.4,0.9c-0.5,0.2-1,0.4-1.5,0.4c-0.9,0-1.6-0.3-2.2-0.8c-0.6-0.5-1-1.2-1.3-1.9
		c-0.3-0.8-0.6-1.6-0.7-2.5c-0.1-0.9-0.2-1.8-0.2-2.5c0-1.9,0.2-3.9,0.7-6c0.5-2.1,1.1-4.2,1.9-6.3c0.8-2.1,1.8-4.3,2.8-6.5
		c1.1-2.2,2.3-4.3,3.5-6.5c1-1.9,2.3-4.2,3.9-6.7c1.6-2.5,3.3-5.1,5.2-7.8c1.9-2.7,4-5.3,6.2-7.9c2.2-2.6,4.6-4.9,7-6.9
		c2.4-2,4.9-3.6,7.4-4.9c2.5-1.2,5-1.9,7.6-1.9c2.6,0,4.8,0.5,6.6,1.4c1.8,0.9,3.2,2.2,4.2,3.8c1,1.6,1.8,3.5,2.2,5.7
		c0.4,2.2,0.6,4.4,0.6,6.8c0,2.1-0.1,4.3-0.4,6.6c-0.3,2.2-0.6,4.4-1,6.6c-0.4,2.2-0.8,4.2-1.3,6.2c-0.5,2-0.9,3.8-1.3,5.4l-1.7,6.5
		c-0.1,0.2-0.2,0.6-0.4,1.1c-0.2,0.6-0.4,1.3-0.7,2.1c-0.3,0.8-0.6,1.7-0.9,2.6c-0.3,0.9-0.7,1.9-1,2.8c-0.3,0.9-0.6,1.7-0.9,2.5
		c-0.3,0.8-0.6,1.4-0.8,1.9l0,0c-0.2,0.8-0.5,1.7-0.7,2.5c-0.3,0.9-0.6,1.6-1,2.3c-0.4,0.7-1,1.2-1.7,1.7
		C160.8,261.8,159.9,262,158.8,262z M161.2,202.5c-1.4,0-2.8,0.3-4.3,0.9c-1.4,0.6-2.8,1.4-4.2,2.3c-1.4,0.9-2.7,2.1-4,3.3
		c-1.3,1.3-2.5,2.6-3.7,3.9c-1.2,1.3-2.2,2.7-3.3,4c-1,1.3-1.9,2.6-2.8,3.7c-0.1,0.2-0.3,0.4-0.5,0.7c-0.2,0.3-0.4,0.6-0.6,1
		c-0.2,0.4-0.4,0.7-0.6,1.1c-0.2,0.4-0.3,0.8-0.5,1.1h4.9c1.8,0,3.8-0.1,6.1-0.4c2.3-0.3,4.5-0.6,6.8-0.9c2.2-0.3,4.3-0.7,6.2-1.1
		c1.9-0.4,3.3-0.6,4.2-0.8c0.1-0.4,0.2-1,0.4-1.7c0.1-0.7,0.2-1.5,0.3-2.3c0.1-0.9,0.2-1.8,0.2-2.7c0-1,0.1-2,0.1-3
		c0-0.8,0-1.8-0.1-2.8c-0.1-1.1-0.3-2.1-0.6-3c-0.3-0.9-0.8-1.7-1.4-2.4C163.3,202.9,162.4,202.5,161.2,202.5z"/>
	<path id="XMLID_6_" d="M182.8,245.2c0.4-1.7,1-3.4,1.6-5.1c0.7-1.7,1.5-3.4,2.5-5.1c1-1.7,2.2-3.3,3.6-4.9c1.4-1.6,3-3.1,4.9-4.6
		c1.3-1,2.6-2,4-2.9c1.4-0.9,2.8-1.7,4.3-2.4c1.5-0.7,2.9-1.2,4.4-1.6c1.5-0.4,2.9-0.6,4.3-0.6c1,0,2,0.1,2.8,0.3
		c0.8,0.2,1.6,0.4,2.3,0.7c0.3-1.1,1.2-4.1,2.5-8.9c1.4-4.8,3.1-11.6,5.1-20.2c0.3-0.9,0.8-1.6,1.5-2.1c0.6-0.6,1.4-0.9,2.3-0.9
		c0.6,0,1.3,0.1,1.9,0.2c0.6,0.1,1.1,0.3,1.6,0.7s0.9,0.8,1.1,1.4c0.3,0.6,0.4,1.3,0.4,2.2l-9.5,38.1c-0.3,1.1-0.6,2.5-0.8,4.3
		c-0.3,1.8-0.5,3.7-0.7,5.8c-0.2,2-0.4,4-0.5,6c-0.1,2-0.2,3.7-0.2,5.1c0,1.8-0.2,3.5-0.6,5.3c-0.2,0.8-0.4,1.4-0.6,1.9
		s-0.5,0.9-0.8,1.3c-0.3,0.3-0.8,0.6-1.3,0.7c-0.5,0.1-1.2,0.2-2,0.2c-0.9,0-1.6-0.1-2.1-0.3c-0.5-0.2-0.9-0.5-1.1-0.8
		c-0.3-0.3-0.4-0.7-0.5-1.1c0-0.4-0.1-0.9-0.1-1.4c0-0.5,0-1-0.1-1.5c0-0.5-0.2-1-0.4-1.5c-0.4,0.3-0.9,0.6-1.6,1
		c-0.7,0.4-1.3,0.8-2,1.3c-0.7,0.4-1.3,0.8-1.9,1.2c-0.6,0.4-1,0.6-1.3,0.8c-0.7,0.4-1.6,0.8-2.5,1.3c-0.9,0.5-1.9,0.9-3,1.3
		c-1.1,0.4-2.2,0.7-3.3,1c-1.2,0.3-2.3,0.4-3.5,0.4c-1.4,0-2.8-0.2-4.2-0.7c-1.3-0.5-2.5-1.2-3.6-2.2c-1.1-1-1.9-2.2-2.5-3.7
		c-0.6-1.5-0.9-3.3-0.9-5.3c0-0.7,0-1.4,0.1-2.2C182.5,246.9,182.6,246.1,182.8,245.2z M191.1,244.8c-0.3,0.9-0.4,1.9-0.4,2.8
		c0,0.9,0.1,1.8,0.2,2.6c0.2,0.8,0.5,1.5,0.9,2.1c0.4,0.6,1,1.1,1.7,1.4c0.7,0.4,1.6,0.5,2.8,0.5c0.6,0,1.3-0.1,2-0.3
		c0.7-0.2,1.4-0.5,2.2-0.8c0.7-0.3,1.4-0.7,2-1c0.6-0.4,1.1-0.7,1.6-1c1.2-0.8,2.3-1.6,3.3-2.3c1-0.8,2-1.6,2.8-2.5
		c0.8-0.9,1.5-1.9,2.2-3s1.1-2.4,1.5-3.8c0.3-1.3,0.6-2.4,0.8-3.5s0.5-2.1,0.6-3.1c0.2-1,0.4-2,0.5-3.1c0.2-1,0.3-2.2,0.5-3.5
		c-0.2-0.2-0.4-0.4-0.6-0.5c-0.3-0.2-0.7-0.3-1.2-0.3c-1.3,0-2.7,0.2-4.2,0.6c-1.5,0.4-3.1,1-4.7,1.8c-1.6,0.8-3.2,1.8-4.7,2.9
		c-1.5,1.1-3,2.4-4.3,3.8c-1.3,1.4-2.5,3-3.4,4.6C192.2,241.2,191.5,242.9,191.1,244.8z"/>
	<path id="XMLID_9_" d="M236.9,243.3c0.5-1.9,1.2-4,2.2-6.2c1-2.2,2.3-4.4,3.9-6.6c1.6-2.2,3.6-4.4,5.8-6.5c2.3-2.1,4.9-4.1,7.9-5.9
		c0.5-0.3,1.2-0.6,2.2-0.9c1-0.3,2-0.5,3-0.6c1.2-1.3,2.9-2,5-2c2.5,0,4.6,0.6,6.2,1.9c1.7,1.3,3.1,3,4.2,5.1c0.3,0.7,0.7,1.4,1,2
		c0.3,0.7,0.6,1.4,0.8,2.1c0.2,0.7,0.4,1.5,0.5,2.4s0.2,1.8,0.2,2.9c0,2.5-0.4,5.1-1.2,7.6c-0.8,2.6-1.9,5.1-3.4,7.6
		c-1.5,2.5-3.2,4.8-5.3,7.1c-2.1,2.3-4.4,4.3-6.9,6.1c-1.7,1.2-3.6,2.2-5.7,2.9c-2.1,0.7-4.4,1-7,1c-2.4,0-4.6-0.3-6.3-1
		c-1.8-0.6-3.3-1.6-4.5-2.8c-1.2-1.2-2.1-2.6-2.7-4.3c-0.6-1.7-0.9-3.5-0.9-5.6C236.1,247.7,236.4,245.6,236.9,243.3z M244.8,243.9
		c-0.2,0.7-0.3,1.4-0.4,2.1c-0.1,0.6-0.1,1.3-0.1,1.9c0,1,0.1,2,0.4,2.9c0.3,0.9,0.7,1.7,1.3,2.3c0.6,0.6,1.4,1.2,2.3,1.5
		c0.9,0.4,2,0.5,3.3,0.5c2.4,0,4.6-0.6,6.7-1.8c2.1-1.2,3.9-2.7,5.5-4.6c1.6-1.8,3-3.8,4.1-5.9c1.1-2.1,1.9-4,2.3-5.8
		c0.3-1.1,0.5-2.2,0.7-3.1c0.2-1,0.3-1.9,0.3-2.7c0-0.8-0.2-1.6-0.5-2.3c-0.3-0.7-0.7-1.5-1.2-2.4c-0.3-0.5-0.6-1.1-0.9-1.7
		c-0.3-0.6-0.5-1.2-0.8-1.7c-0.3,0.4-0.5,0.8-0.8,1.2c-0.3,0.3-0.7,0.6-1.3,0.9c-0.6,0.3-1.3,0.5-2.3,0.7c-1,0.2-2.3,0.4-3.8,0.6
		c-1,0.3-2.1,0.9-3.2,1.6c-1.1,0.7-2.1,1.6-3.2,2.6c-1,1-2,2-2.9,3.2c-0.9,1.1-1.8,2.3-2.5,3.5s-1.4,2.4-1.9,3.5
		C245.4,241.9,245,243,244.8,243.9z"/>
	<path id="XMLID_12_" d="M290.6,245.9c0.6-2.6,1.4-5.4,2.2-8.4c0.8-3,1.7-6.1,2.6-9.3c0.9-3.2,1.8-6.3,2.6-9.4
		c0.9-3.1,1.7-6,2.4-8.8c0.7-2.8,1.4-5.2,1.9-7.5c0.5-2.2,0.9-4,1.1-5.4l0.5-3.8c0.1-0.3,0.2-0.6,0.3-0.9c0.1-0.3,0.3-0.7,0.5-1
		c0.2-0.3,0.5-0.6,0.9-0.8c0.4-0.2,0.8-0.3,1.4-0.3c1,0,1.8,0.2,2.5,0.5c0.7,0.3,1.2,0.8,1.6,1.4c0.4,0.6,0.7,1.3,0.8,2
		c0.2,0.8,0.2,1.6,0.2,2.4c0,0.8-0.1,1.7-0.2,2.5c-0.1,0.8-0.3,1.6-0.4,2.3c-1,4.3-2.2,8.7-3.6,13.1c-1.3,4.4-2.6,8.9-3.6,13.3
		c1.2-1.2,2.6-2.3,4-3.3c1.4-1.1,2.9-2,4.5-2.8c1.6-0.8,3.2-1.4,4.8-1.9s3.3-0.7,4.9-0.7c1.7,0,3.2,0.3,4.5,0.8
		c1.3,0.5,2.3,1.2,3.1,2.1c0.8,0.9,1.4,1.9,1.8,3.1c0.4,1.2,0.6,2.5,0.6,3.9c0,0.7,0,1.4-0.1,2.1s-0.2,1.4-0.4,2.1
		c-0.8,3.3-2,6.2-3.5,8.8c-1.5,2.6-3.2,4.9-5.1,7c-1.9,2-4,3.8-6.2,5.4s-4.5,3-6.8,4.2c-1.5,0.8-2.9,1.4-4.3,1.8s-2.7,0.6-4.1,0.6
		c-1.3,0-2.3-0.1-3-0.4c-0.7-0.3-1.3-0.7-1.8-1.2c-0.2,0.3-0.4,0.6-0.6,1c-0.2,0.3-0.5,0.7-0.9,1c-0.3,0.3-0.7,0.5-1.2,0.7
		s-1,0.3-1.5,0.3c-1.8,0-3.1-0.5-3.8-1.4c-0.8-0.9-1.1-2.1-1.1-3.6c0-0.5,0-1.1,0.1-1.6c0.1-0.6,0.2-1.1,0.4-1.6L290.6,245.9z
		 M320.8,226.6c-1.5,0-3.1,0.4-4.9,1.1c-1.8,0.8-3.5,1.7-5.3,2.8c-1.8,1.1-3.5,2.3-5.1,3.6c-1.6,1.3-3.1,2.4-4.4,3.4
		c-0.4,1.3-0.8,2.5-1.1,3.8c-0.4,1.2-0.8,2.4-1.1,3.7c-0.4,1.2-0.7,2.5-1,3.8c-0.3,1.3-0.6,2.7-0.8,4.1l-0.3,1.9l0.3,0.9
		c0.7-0.4,1.3-0.7,1.8-0.9c0.6-0.2,1.1-0.4,1.6-0.5c0.5-0.1,1.1-0.3,1.6-0.5c0.6-0.2,1.2-0.4,1.9-0.7c5-2,9.1-4.7,12.5-8
		c3.4-3.4,5.7-7.5,6.9-12.4c0.2-0.7,0.3-1.3,0.4-1.9c0.1-0.5,0.1-1,0.1-1.5c0-0.9-0.3-1.7-0.8-2.1
		C322.7,226.8,321.9,226.6,320.8,226.6z"/>
	<path id="XMLID_15_" d="M339.2,243.1c0-1.4,0.4-2.5,1.1-3.5s1.7-1.6,2.9-1.9c0.3-0.7,0.9-1.6,1.6-2.8c0.7-1.2,1.6-2.5,2.7-3.9
		c1.1-1.4,2.3-2.8,3.7-4.2c1.4-1.4,2.9-2.7,4.6-3.8c1.7-1.2,3.5-2.1,5.4-2.8c1.9-0.7,3.9-1.1,6.1-1.1c1.8,0,3.4,0.2,4.8,0.7
		c1.4,0.4,2.5,1.1,3.4,1.9c0.9,0.8,1.6,1.7,2,2.8c0.4,1.1,0.7,2.3,0.7,3.5c0,1.1-0.1,2.1-0.4,3.1c-0.4,1.8-1.3,3.3-2.5,4.7
		c-1.2,1.3-2.6,2.5-4.3,3.5c-1.6,1-3.4,1.8-5.3,2.5c-1.9,0.7-3.8,1.2-5.7,1.7c-1.9,0.4-3.8,0.8-5.5,1s-3.3,0.4-4.6,0.5
		c-0.3,0.6-0.5,1.3-0.7,2.2c-0.2,0.9-0.3,1.7-0.3,2.5c0,1.8,0.7,3.3,2.2,4.3c1.5,1,3.5,1.5,6,1.5c1.5,0,2.9-0.2,4.3-0.5
		s2.7-0.8,3.9-1.3c1.2-0.5,2.4-1.1,3.4-1.7s2.1-1.2,2.9-1.8c1.1-0.8,2.2-1.4,3.3-1.9c1-0.5,1.9-0.8,2.7-0.8s1.3,0.2,1.5,0.6
		c0.2,0.4,0.3,0.8,0.3,1.3c0,0.3,0,0.5,0,0.7c0,0.2,0,0.4-0.1,0.6c-0.2,0.8-0.5,1.6-0.9,2.5c-0.5,0.8-1.1,1.5-1.8,2.1
		c-3.3,2.6-6.7,4.4-10.1,5.6c-3.5,1.1-7.2,1.7-11.1,1.7c-0.8,0-1.7,0-2.7-0.1c-1-0.1-2.1-0.3-3.2-0.6c-1.1-0.3-2.2-0.7-3.3-1.2
		c-1.1-0.5-2-1.3-2.9-2.1c-0.8-0.9-1.5-2-2-3.3c-0.5-1.3-0.8-2.9-0.8-4.7c0-1.5,0.2-3.2,0.6-5c-0.4-0.1-0.8-0.3-1.2-0.6
		C339.4,244.4,339.2,243.8,339.2,243.1z M368.9,230c0.1-0.2,0.1-0.3,0.1-0.4c0-0.1,0-0.3,0-0.4c0-0.9-0.3-1.5-0.9-1.9
		c-0.6-0.4-1.4-0.6-2.3-0.6c-1.4,0-2.8,0.4-4.1,1.1c-1.3,0.7-2.6,1.6-3.8,2.7s-2.2,2.3-3.2,3.5c-0.9,1.3-1.6,2.4-2.1,3.4
		c2.3-0.2,4.4-0.5,6.3-0.9c1.9-0.4,3.6-1,5-1.6c1.4-0.6,2.5-1.4,3.4-2.2S368.7,230.9,368.9,230z"/>
</g>
</svg>
